# xmcd CD database file
#
# Track frame offsets:
#	150
#	15107
#	34255
#	48990
#
# Disc length: 905 seconds
#
# Revision: 0
# Processed by: cddbd v1.5PL3 Copyright (c) Steve Scherf et al.
# Submitted via: CDex 1.50beta10
#
DISCID=22038704
DTITLE=Priere - Shake it×2
DYEAR=2003
DGENRE=JPop
TTITLE0=Shake it×2
TTITLE1=Capsule
TTITLE2=Shake it×2(Instrumental)
TTITLE3=Capsule(Instrumental)
EXTD=YEAR: 2003
EXTT0=
EXTT1=
EXTT2=
EXTT3=
PLAYORDER=
